<svg xmlns="http://www.w3.org/2000/svg" version="1.1" viewBox="-5.0 -10.0 110.0 135.0">
 <path d="m71.875 50c0 5.8008-2.3047 11.367-6.4062 15.469s-9.668 6.4062-15.469 6.4062-11.367-2.3047-15.469-6.4062-6.4062-9.668-6.4062-15.469 2.3047-11.367 6.4062-15.469 9.668-6.4062 15.469-6.4062c5.8008 0.007812 11.359 2.3125 15.461 6.4141 4.1016 4.1016 6.4062 9.6602 6.4141 15.461zm-21.875-28.125c0.82812 0 1.625-0.32812 2.2109-0.91406 0.58594-0.58594 0.91406-1.3828 0.91406-2.2109v-9.375c0-1.7266-1.3984-3.125-3.125-3.125s-3.125 1.3984-3.125 3.125v9.375c0 0.82812 0.32812 1.625 0.91406 2.2109 0.58594 0.58594 1.3828 0.91406 2.2109 0.91406zm-28.125 28.125c0-0.82812-0.32812-1.625-0.91406-2.2109-0.58594-0.58594-1.3828-0.91406-2.2109-0.91406h-9.375c-1.7266 0-3.125 1.3984-3.125 3.125s1.3984 3.125 3.125 3.125h9.375c0.82812 0 1.625-0.32812 2.2109-0.91406 0.58594-0.58594 0.91406-1.3828 0.91406-2.2109zm3.6484 19.688-6.6914 6.5625c-1.1719 1.2188-1.1602 3.1445 0.023438 4.3516 1.1836 1.207 3.1094 1.2539 4.3516 0.10938l6.6875-6.5625c0.62109-0.57422 0.98438-1.375 1.0039-2.2188 0.019531-0.84766-0.30078-1.6641-0.89453-2.2656-0.58984-0.60547-1.4023-0.94141-2.2461-0.9375-0.84766 0.003907-1.6523 0.35156-2.2383 0.96094zm48.609 0.42969c-1.2188-1.1719-3.1484-1.1602-4.3516 0.023437-1.207 1.1836-1.2539 3.1094-0.10938 4.3516l6.5625 6.6914v-0.003906c1.2188 1.1719 3.1445 1.1602 4.3516-0.023438 1.207-1.1836 1.2539-3.1094 0.10937-4.3516zm16.52-22.867-9.375-0.082031-0.027344-0.003907c-1.7266-0.007812-3.1328 1.3867-3.1406 3.1133-0.007813 1.7266 1.3867 3.1289 3.1133 3.1367l9.375 0.082032h0.027344c1.7266 0.007812 3.1289-1.3867 3.1367-3.1133 0.007812-1.7227-1.3867-3.1289-3.1133-3.1367zm-18.363-16.027c0.82031 0 1.6055-0.32031 2.1875-0.89453l6.6914-6.5625c1.1719-1.2188 1.1602-3.1445-0.023438-4.3516-1.1836-1.207-3.1094-1.2539-4.3516-0.10937l-6.6875 6.5625c-0.90234 0.89062-1.1797 2.2383-0.69922 3.4102 0.47656 1.1758 1.6211 1.9414 2.8867 1.9453zm-46.402-1.3438c1.2148 1.2031 3.168 1.207 4.3867 0.011719 1.2227-1.1953 1.2539-3.1523 0.078124-4.3867l-6.5625-6.6914c-0.57422-0.62109-1.375-0.98438-2.2188-1.0039-0.84766-0.019532-1.6641 0.30078-2.2656 0.89453-0.60547 0.58984-0.94141 1.4023-0.9375 2.2461 0.003906 0.84766 0.35156 1.6523 0.96094 2.2383zm24.113 48.246c-1.7266 0-3.125 1.3984-3.125 3.125v9.375c0 1.7266 1.3984 3.125 3.125 3.125s3.125-1.3984 3.125-3.125v-9.375c0-0.82812-0.32812-1.625-0.91406-2.2109-0.58594-0.58594-1.3828-0.91406-2.2109-0.91406z" fill="white"/>
</svg>